<?xml version="1.0" standalone="no"?>
<!DOCTYPE svg PUBLIC "-//W3C//DTD SVG 20010904//EN"
 "http://www.w3.org/TR/2001/REC-SVG-20010904/DTD/svg10.dtd">
<svg version="1.0" xmlns="http://www.w3.org/2000/svg"
 width="700.000000pt" height="700.000000pt" viewBox="0 0 700.000000 700.000000"
 preserveAspectRatio="xMidYMid meet">
<metadata>
Created by potrace 1.14, written by Peter Selinger 2001-2017
</metadata>
<g transform="translate(0.000000,700.000000) scale(0.100000,-0.100000)"
fill="#000000" stroke="none">
<path d="M5505 6619 c-27 -4 -67 -10 -88 -13 -22 -4 -94 -18 -160 -32 -67 -14
-133 -27 -147 -30 -75 -14 -437 -103 -575 -140 -853 -235 -1592 -542 -2098
-871 -115 -74 -312 -217 -377 -272 -128 -109 -265 -242 -363 -355 -34 -39 -67
-76 -72 -82 -6 -6 -37 -47 -70 -90 -33 -43 -63 -81 -66 -84 -13 -11 -159 -240
-202 -316 -199 -352 -309 -656 -388 -1064 -54 -285 26 -537 245 -770 158 -168
366 -303 715 -464 13 -6 46 -11 73 -11 75 0 92 25 167 245 114 332 228 603
391 930 84 169 126 247 249 465 241 424 675 1022 1011 1390 122 133 368 382
465 470 69 63 162 144 195 171 19 16 37 31 40 34 3 3 48 40 100 81 259 203
477 344 710 458 136 66 152 73 245 106 184 65 248 155 152 214 -47 28 -96 38
-152 30z"/>
<path d="M5925 6305 c-198 -44 -470 -200 -885 -510 -1496 -1114 -2552 -2837
-3096 -5050 -30 -121 -58 -232 -63 -247 -5 -16 -6 -30 -3 -32 4 -2 50 10 102
26 52 16 154 47 225 69 190 59 177 51 204 122 13 34 32 80 42 102 24 55 338
830 358 884 25 69 57 86 149 84 87 -3 164 -22 472 -116 243 -74 422 -123 525
-144 75 -15 93 -18 170 -28 28 -3 61 -8 75 -11 64 -11 347 -3 410 12 14 3 39
8 55 11 184 27 403 159 602 360 70 71 173 197 173 212 0 5 4 11 8 13 13 5 80
121 123 213 55 117 102 257 132 395 23 102 30 148 43 255 24 202 23 633 -1
885 -2 19 -7 71 -10 115 -4 44 -8 96 -10 115 -25 259 -24 832 0 982 2 13 6 50
9 83 5 51 28 200 51 335 14 81 78 309 111 394 39 101 96 203 143 256 48 54 84
133 76 168 -11 51 -86 70 -190 47z"/>
</g>
</svg>
