<?xml version="1.0" standalone="no"?>
<!DOCTYPE svg PUBLIC "-//W3C//DTD SVG 20010904//EN"
 "http://www.w3.org/TR/2001/REC-SVG-20010904/DTD/svg10.dtd">
<svg version="1.0" xmlns="http://www.w3.org/2000/svg"
 width="700.000000pt" height="700.000000pt" viewBox="0 0 700.000000 700.000000"
 preserveAspectRatio="xMidYMid meet">
<metadata>
Created by potrace 1.14, written by Peter Selinger 2001-2017
</metadata>
<g transform="translate(0.000000,700.000000) scale(0.100000,-0.100000)"
fill="#000000" stroke="none">
<path d="M711 6233 c-11 -10 -22 -30 -25 -46 -7 -41 60 -166 150 -277 135
-168 313 -432 412 -610 16 -30 47 -84 67 -120 40 -70 238 -466 402 -805 255
-525 501 -931 629 -1038 98 -82 265 -149 429 -172 190 -26 489 -26 667 1 33 5
38 3 42 -18 2 -13 14 -63 26 -113 12 -49 23 -97 25 -106 20 -90 125 -369 175
-465 83 -157 164 -270 265 -370 134 -133 263 -201 449 -239 226 -46 417 -166
682 -430 162 -162 221 -229 446 -514 82 -102 184 -231 227 -286 134 -168 218
-243 256 -229 18 7 79 108 105 175 61 153 66 363 14 576 -48 198 -134 395
-276 628 -79 131 -106 171 -201 300 -523 714 -1399 1406 -1796 1419 l-74 2 -4
54 c-9 126 -74 329 -150 470 -146 268 -310 478 -603 771 -302 303 -554 514
-930 780 -643 455 -1292 760 -1409 662z m191 -101 c28 -15 133 -97 168 -132 3
-3 48 -41 100 -85 119 -100 513 -437 520 -444 3 -4 41 -38 85 -76 44 -39 82
-72 85 -75 3 -3 48 -43 100 -90 52 -47 100 -89 106 -95 307 -276 730 -694 969
-956 126 -138 142 -156 210 -234 39 -45 89 -103 111 -130 113 -136 162 -194
189 -229 17 -22 52 -66 79 -100 26 -33 71 -95 99 -136 134 -199 290 -360 502
-521 33 -25 166 -121 295 -214 211 -151 396 -294 470 -364 337 -322 585 -595
719 -795 203 -303 299 -525 335 -776 4 -29 -11 -78 -31 -101 -30 -35 -73 8
-86 86 -17 96 -89 264 -178 412 -46 77 -212 319 -228 333 -4 3 -38 43 -76 90
-132 162 -345 375 -479 482 -30 23 -371 267 -521 373 -474 333 -563 402 -740
580 -170 169 -230 240 -295 350 -91 155 -252 393 -385 570 -110 147 -267 346
-300 381 -5 6 -21 24 -34 40 -76 90 -290 329 -365 408 -320 335 -683 687 -992
961 -6 6 -29 26 -50 45 -22 19 -73 64 -114 100 -41 36 -77 67 -80 70 -3 3 -57
50 -120 104 -109 94 -148 142 -136 172 7 19 25 18 68 -4z"/>
</g>
</svg>
